<?xml version="1.0" standalone="no"?>
<!DOCTYPE svg PUBLIC "-//W3C//DTD SVG 20010904//EN"
 "http://www.w3.org/TR/2001/REC-SVG-20010904/DTD/svg10.dtd">
<svg version="1.0" xmlns="http://www.w3.org/2000/svg"
 width="569.000000pt" height="439.000000pt" viewBox="0 0 569.000000 439.000000"
 preserveAspectRatio="xMidYMid meet">

<g transform="translate(0.000000,439.000000) scale(0.100000,-0.100000)"
fill="#000000" stroke="none">
<path d="M2619 4238 c-3 -29 2 -156 7 -188 5 -35 3 -37 -85 -105 -50 -39 -91
-76 -91 -84 0 -12 21 -13 118 -8 l119 6 69 -90 c38 -49 74 -87 79 -85 6 2 9
47 7 118 l-3 115 91 72 c53 42 88 76 84 83 -5 7 -41 9 -119 4 l-113 -7 -72 91
c-70 87 -89 104 -91 78z m95 -127 l54 -67 91 4 c50 2 91 1 90 -4 0 -5 -31 -33
-69 -62 l-69 -53 6 -94 c3 -52 4 -95 1 -95 -3 0 -29 32 -59 70 l-54 70 -98 -2
c-53 -2 -97 0 -97 3 0 4 32 31 71 60 l71 54 -4 97 c-3 54 -1 95 4 92 4 -3 32
-36 62 -73z"/>
<path d="M3540 3476 c0 -63 0 -64 -40 -91 -57 -40 -50 -60 20 -56 54 2 56 1
93 -44 21 -25 43 -43 48 -40 5 4 9 33 9 65 0 56 1 60 40 90 60 47 54 64 -19
56 l-59 -7 -33 46 c-46 64 -59 59 -59 -19z m113 -46 c44 0 46 -5 12 -32 -19
-15 -25 -29 -25 -61 l-1 -42 -28 34 c-23 28 -33 33 -59 29 -39 -5 -40 1 -7 32
17 16 25 34 25 59 l1 36 22 -27 c17 -22 32 -28 60 -28z"/>
<path d="M1215 2860 c-495 -36 -831 -124 -918 -242 -17 -23 -21 -51 -28 -190
-4 -90 -8 -209 -8 -265 -1 -99 0 -103 29 -136 99 -113 496 -225 1035 -292 329
-40 485 -49 962 -49 340 -1 469 -4 460 -12 -7 -6 -55 -46 -107 -89 -225 -186
-432 -424 -475 -545 -28 -80 -24 -91 115 -316 71 -115 141 -218 155 -229 53
-40 232 -17 450 58 639 220 1701 883 2194 1370 160 158 242 269 256 348 8 44
3 54 -147 294 -144 229 -144 229 -293 222 -87 -4 -136 -12 -232 -41 -216 -63
-539 -202 -818 -353 l-130 -70 -5 61 c-8 100 -46 143 -185 210 -249 120 -597
194 -1195 252 -178 18 -938 27 -1115 14z m970 -31 c655 -41 1278 -180 1442
-323 49 -43 60 -75 53 -151 l-5 -55 -124 -75 -124 -75 -76 24 c-145 46 -436
102 -700 136 -411 53 -949 77 -1339 60 -487 -20 -905 -99 -1006 -188 -18 -17
-19 -14 -12 188 8 230 13 245 78 287 155 97 527 162 1068 187 116 5 566 -4
745 -15z m2845 -87 c20 -15 230 -332 230 -348 0 -2 -24 -4 -54 -4 -344 0
-1249 -448 -1991 -985 -433 -313 -757 -623 -806 -772 -6 -19 -15 -31 -20 -26
-4 4 -55 84 -113 177 -65 103 -106 179 -106 195 0 68 86 197 229 344 372 382
983 806 1631 1131 321 161 592 265 765 295 33 6 71 13 85 15 46 8 125 -4 150
-22z m260 -402 c31 -31 25 -77 -17 -149 -305 -518 -2022 -1599 -2674 -1684
-147 -19 -202 20 -165 116 33 88 214 300 269 315 159 46 561 236 867 411 451
259 868 555 1175 837 55 50 111 97 124 104 13 6 74 25 135 41 140 36 256 39
286 9z m-3125 -10 c207 -15 433 -38 580 -60 189 -28 425 -73 425 -81 0 -8
-121 -23 -335 -44 -176 -17 -782 -20 -1005 -5 -252 17 -578 55 -770 91 -123
22 -282 60 -277 65 7 7 274 35 417 44 172 10 766 4 965 -10z m-1160 -115 c411
-78 795 -110 1315 -110 420 0 552 8 802 46 134 21 139 21 203 4 36 -10 65 -21
65 -24 -1 -3 -80 -58 -178 -123 -97 -64 -226 -153 -287 -198 -60 -46 -123 -87
-140 -92 -43 -14 -787 -13 -980 1 -676 48 -1160 138 -1406 262 -53 26 -119 88
-119 110 0 62 112 124 301 168 l123 28 86 -24 c46 -12 143 -34 215 -48z m3725
-6 c-231 -207 -469 -388 -779 -593 -268 -178 -471 -295 -756 -436 -215 -106
-443 -205 -451 -197 -8 8 134 133 283 249 472 367 1131 763 1603 964 69 30
130 54 135 53 6 0 -10 -18 -35 -40z"/>
<path d="M1320 1001 c0 -57 -1 -60 -40 -91 -58 -46 -53 -60 20 -60 57 0 60 -1
91 -40 47 -58 59 -53 59 24 0 63 0 64 40 91 59 41 53 55 -22 55 -62 0 -64 1
-92 40 -43 57 -56 52 -56 -19z m120 -51 l34 0 -27 -28 c-20 -20 -27 -39 -27
-66 l0 -38 -26 31 c-21 25 -33 31 -66 31 l-40 0 31 26 c24 20 31 34 31 62 l0
36 28 -27 c19 -18 39 -27 62 -27z"/>
</g>
</svg>
