<?xml version="1.0" standalone="no"?>
<!DOCTYPE svg PUBLIC "-//W3C//DTD SVG 20010904//EN"
 "http://www.w3.org/TR/2001/REC-SVG-20010904/DTD/svg10.dtd">
<svg version="1.0" xmlns="http://www.w3.org/2000/svg"
 width="736.000000pt" height="736.000000pt" viewBox="0 0 736.000000 736.000000"
 preserveAspectRatio="xMidYMid meet">

<g transform="translate(0.000000,736.000000) scale(0.100000,-0.100000)"
fill="#000000" stroke="none">
<path d="M3618 4902 c-33 -14 -87 -72 -93 -103 -7 -29 -9 -31 -42 -26 -20 4
-46 16 -59 28 -13 13 -24 17 -24 11 0 -16 44 -43 83 -51 27 -6 33 -12 38 -41
l6 -35 2 33 c1 29 4 32 34 32 43 0 115 38 141 73 19 26 19 30 5 55 -15 28 -56
39 -91 24z m72 -12 c20 0 17 -42 -6 -69 -34 -41 -154 -80 -154 -51 0 60 87
138 138 124 8 -2 17 -4 22 -4z"/>
<path d="M3668 4673 c-21 -26 -39 -73 -28 -73 6 0 10 -6 10 -14 0 -8 5 -18 11
-22 7 -4 9 0 5 13 -5 15 2 23 33 36 40 18 57 47 38 66 -17 17 -52 13 -69 -6z
m62 -13 c0 -20 -27 -40 -54 -40 -21 0 -20 19 1 42 22 24 53 24 53 -2z"/>
<path d="M3035 4530 c3 -5 12 -10 20 -10 8 0 18 -8 24 -17 9 -17 12 -16 33 6
20 20 21 22 3 13 -15 -7 -25 -6 -40 4 -22 16 -49 19 -40 4z"/>
<path d="M3265 4453 c35 -5 54 -19 65 -48 7 -16 9 -17 9 -3 1 9 11 24 23 32
22 15 22 15 -8 16 -16 0 -49 1 -74 3 -25 3 -32 2 -15 0z"/>
<path d="M3730 4457 c0 -15 30 -67 39 -67 16 0 33 -63 20 -71 -9 -5 -10 -43
-6 -137 l5 -129 -71 -7 c-40 -4 -157 -13 -262 -22 -104 -8 -193 -18 -198 -23
-5 -5 -7 -24 -5 -42 2 -25 8 -35 23 -37 18 -2 27 -28 69 -203 26 -110 46 -202
44 -205 -10 -9 -280 -26 -287 -18 -5 5 -18 70 -30 144 -25 153 -31 176 -40
164 -3 -5 -28 -15 -56 -22 -27 -7 -65 -25 -83 -40 -62 -49 -72 -54 -104 -56
-42 -2 -44 -15 -9 -53 43 -47 92 -57 174 -34 88 26 103 21 112 -36 4 -25 9
-52 12 -59 4 -10 -3 -14 -21 -14 -14 0 -26 -6 -26 -12 0 -7 12 -66 26 -131 15
-65 24 -121 21 -124 -3 -3 -35 1 -71 9 -36 8 -63 11 -61 7 9 -13 103 -29 173
-29 91 0 186 24 252 64 l55 32 44 -28 c133 -84 368 -76 509 17 43 28 53 31 69
20 31 -22 153 -55 203 -55 58 0 169 33 202 60 30 25 22 25 -31 -1 -46 -22
-147 -46 -156 -38 -3 3 15 48 39 100 65 138 158 410 145 423 -3 3 -61 -19
-129 -48 -135 -58 -357 -133 -366 -123 -5 5 12 235 21 292 2 11 4 27 4 35 1 9
15 21 31 27 22 8 30 18 30 35 0 44 -13 51 -80 45 l-62 -5 7 135 7 136 -44 -6
c-46 -6 -68 4 -68 31 0 8 8 21 18 28 14 10 15 15 5 25 -10 10 -16 10 -25 1
-18 -18 -24 -15 -47 21 -11 17 -21 28 -21 24z m160 -175 c0 -21 -7 -31 -27
-39 -26 -10 -26 -11 -5 -12 12 -1 22 -5 22 -9 0 -5 -10 -14 -22 -20 l-23 -11
23 0 c13 -1 22 -7 22 -16 0 -9 -10 -20 -22 -25 l-23 -9 23 0 c12 -1 22 -7 22
-15 0 -7 -10 -17 -22 -21 l-23 -8 23 -4 c32 -6 22 -27 -15 -31 -30 -3 -30 -3
-37 59 -3 34 -6 88 -6 120 l0 58 43 4 c23 2 43 4 45 5 1 1 2 -11 2 -26z m124
-248 c10 -25 -2 -34 -47 -34 -23 0 -112 -7 -197 -16 -85 -8 -204 -19 -265 -24
-60 -5 -138 -12 -172 -16 -59 -6 -63 -6 -63 14 0 25 1 25 235 47 94 9 229 22
300 29 185 19 202 19 209 0z m-58 -106 c-4 -29 -11 -109 -16 -177 -6 -69 -12
-127 -14 -129 -15 -14 -346 -85 -452 -97 l-61 -7 -47 193 c-25 107 -46 197
-46 200 0 11 40 18 180 29 74 7 191 17 260 24 69 7 142 14 163 15 l38 1 -5
-52z m450 -220 c-25 -80 -65 -191 -91 -251 -39 -94 -75 -166 -83 -171 -11 -7
-132 28 -175 50 -26 14 -31 12 -92 -25 -94 -56 -172 -75 -290 -69 -87 5 -104
9 -177 45 l-81 41 -71 -38 c-90 -49 -246 -89 -246 -64 0 3 -11 55 -25 116 -14
61 -25 116 -25 122 0 7 38 12 113 14 339 7 902 136 1190 273 34 16 65 29 69
29 3 0 -4 -33 -16 -72z m-1412 26 c-13 -31 -13 -39 1 -66 8 -17 15 -32 15 -33
0 -1 -25 -10 -56 -20 -66 -21 -117 -15 -150 16 -31 29 -30 35 4 42 15 3 45 20
67 38 44 34 90 58 117 59 16 0 16 -3 2 -36z m50 -51 c6 -45 4 -52 -9 -47 -33
13 -45 67 -24 106 15 28 24 11 33 -59z"/>
<path d="M3593 3855 c-120 -52 -77 -255 55 -255 73 0 122 56 122 138 0 98 -87
156 -177 117z m117 -24 c106 -75 28 -248 -94 -206 -21 7 -44 21 -52 32 -39 51
-33 134 13 170 45 36 86 37 133 4z"/>
<path d="M3591 3814 c-39 -32 -49 -80 -26 -127 29 -62 98 -75 146 -28 24 24
29 38 29 76 0 38 -5 52 -29 76 -37 37 -79 38 -120 3z m109 -14 c56 -56 19
-150 -59 -150 -23 0 -59 35 -67 65 -7 30 12 81 35 95 27 16 70 11 91 -10z"/>
<path d="M4328 3698 c-16 -5 -28 -14 -28 -19 0 -12 6 -11 40 6 47 24 39 32
-12 13z"/>
<path d="M4173 3638 c-73 -28 -67 -41 7 -16 33 11 60 24 60 29 0 12 -5 11 -67
-13z"/>
<path d="M3960 3568 c-68 -21 -76 -25 -69 -33 8 -7 139 35 139 45 0 6 -1 10
-2 9 -2 0 -32 -9 -68 -21z"/>
<path d="M3743 3511 c-60 -16 -91 -31 -62 -31 8 0 30 4 49 9 19 5 47 12 63 15
15 4 27 11 27 16 0 12 3 12 -77 -9z"/>
<path d="M3538 3466 c-32 -5 -58 -13 -58 -18 0 -10 23 -9 85 6 66 15 46 24
-27 12z"/>
<path d="M3308 3433 c-21 -2 -38 -9 -38 -15 0 -12 130 -1 145 13 9 9 -31 10
-107 2z"/>
<path d="M3105 3410 c3 -5 28 -10 56 -10 27 0 49 5 49 10 0 6 -25 10 -56 10
-34 0 -53 -4 -49 -10z"/>
<path d="M3016 4292 c-3 -5 -29 -8 -58 -7 -29 1 -38 0 -19 -2 19 -2 41 -12 48
-21 7 -10 12 -12 13 -5 0 7 12 19 28 27 18 10 22 15 10 16 -9 0 -19 -4 -22 -8z"/>
<path d="M4001 3223 c-13 -9 -40 -25 -60 -35 l-36 -19 35 6 c19 3 46 13 60 23
22 16 29 17 55 6 17 -7 44 -13 60 -13 29 1 29 1 5 8 -14 5 -40 15 -57 24 -39
20 -34 21 -62 0z"/>
<path d="M3352 3183 c-55 -32 -47 -42 12 -14 32 16 50 20 63 13 27 -15 93 -31
93 -24 0 6 -112 53 -121 51 -2 -1 -23 -12 -47 -26z"/>
</g>
</svg>
