<?xml version="1.0" standalone="no"?>
<!DOCTYPE svg PUBLIC "-//W3C//DTD SVG 20010904//EN"
 "http://www.w3.org/TR/2001/REC-SVG-20010904/DTD/svg10.dtd">
<svg version="1.0" xmlns="http://www.w3.org/2000/svg"
 width="500.000000pt" height="500.000000pt" viewBox="0 0 500.000000 500.000000"
 preserveAspectRatio="xMidYMid meet">

<g transform="translate(0.000000,500.000000) scale(0.100000,-0.100000)"
fill="#000000" stroke="none">
<path d="M2437 4389 c-84 -55 -211 -174 -289 -270 -144 -177 -242 -355 -321
-584 -138 -401 -150 -658 -92 -2029 8 -187 18 -343 23 -348 6 -6 358 -38 428
-38 17 0 24 -11 38 -58 22 -80 38 -91 154 -102 53 -5 107 -10 120 -10 20 0 22
-5 22 -46 0 -33 -4 -45 -13 -41 -7 2 -39 10 -71 17 -98 20 -166 -4 -186 -66
-32 -97 85 -192 190 -155 28 9 32 8 40 -14 5 -13 18 -33 30 -45 40 -40 129
-14 144 43 5 22 10 24 65 23 46 -1 66 4 88 20 59 44 56 150 -6 191 -41 28
-131 31 -188 8 -19 -8 -37 -15 -39 -15 -2 0 -4 18 -4 40 0 25 5 40 13 40 49 0
244 23 258 31 9 4 20 21 23 36 4 16 11 44 17 64 l9 36 112 7 c126 8 225 20
234 29 8 8 41 617 55 1022 12 347 6 752 -12 905 -26 222 -100 474 -199 678
-72 150 -142 258 -244 379 -108 129 -291 283 -336 283 -9 0 -37 -14 -63 -31z
m135 -66 c93 -69 233 -216 310 -324 156 -219 278 -516 333 -809 47 -255 42
-1056 -13 -1890 l-7 -104 -35 -7 c-98 -20 -419 -32 -709 -25 -326 7 -634 26
-647 39 -19 18 -49 892 -48 1387 0 466 5 518 64 753 41 160 89 286 166 437 82
158 174 288 289 405 81 84 205 185 225 185 4 0 37 -21 72 -47z m9 -3213 l258
0 -12 -42 c-10 -33 -19 -44 -42 -51 -37 -12 -429 -15 -468 -4 -27 7 -37 23
-51 81 -7 28 -6 29 25 22 17 -3 148 -6 290 -6z m161 -260 c42 -12 58 -34 58
-79 0 -20 -8 -35 -22 -45 -28 -20 -43 -20 -107 1 -28 9 -54 13 -58 9 -4 -4 -6
-23 -5 -42 3 -43 -12 -64 -44 -64 -28 0 -49 40 -39 71 9 28 -15 33 -75 13 -39
-13 -61 -15 -88 -8 -44 11 -77 53 -68 87 13 54 109 59 213 12 l51 -23 32 28
c26 23 64 40 110 49 3 0 22 -4 42 -9z"/>
<path d="M2440 4073 c-132 -68 -91 -273 55 -273 104 0 167 112 117 209 -35 69
-109 97 -172 64z m111 -62 c51 -51 37 -130 -27 -157 -30 -13 -38 -13 -64 1
-37 19 -50 43 -50 90 0 45 45 95 85 95 16 0 38 -12 56 -29z"/>
<path d="M2195 3364 c-97 -14 -206 -38 -213 -48 -11 -13 -98 -348 -143 -551
-20 -89 -31 -164 -30 -205 2 -125 62 -1275 66 -1288 4 -10 124 -12 619 -10
393 2 619 7 625 13 5 6 21 291 36 666 l27 656 -27 169 c-30 194 -82 465 -95
498 -7 19 -24 26 -107 45 -195 44 -265 52 -498 56 -126 2 -243 1 -260 -1z
m285 -179 l0 -135 -77 -1 c-43 0 -115 -4 -161 -7 -46 -4 -87 -5 -91 -2 -18 11
-122 233 -114 241 17 17 187 37 316 38 l127 1 0 -135z m290 109 c52 -8 125
-22 162 -30 l68 -16 -52 -97 c-86 -159 -71 -147 -166 -133 -45 7 -120 16 -167
19 l-85 6 0 140 0 139 73 -7 c39 -3 115 -13 167 -21z m-680 -350 c-34 -98
-118 -205 -190 -244 -22 -12 -22 -12 -16 33 7 45 101 439 112 467 4 9 26 -25
60 -92 l54 -108 -20 -56z m956 162 c26 -125 75 -430 72 -449 -3 -17 -11 -13
-58 30 -59 54 -120 149 -146 225 l-15 47 61 111 c34 61 65 109 67 106 3 -3 11
-34 19 -70z m-446 -116 c58 -5 137 -15 177 -21 l72 -12 16 -51 c40 -122 124
-238 215 -297 45 -29 50 -36 50 -68 -1 -116 -50 -1213 -55 -1221 -4 -6 -211
-10 -580 -10 l-573 0 -6 73 c-4 39 -17 304 -31 587 -13 283 -27 543 -29 577
l-5 63 57 36 c112 70 185 160 227 277 l23 62 63 6 c105 9 267 9 379 -1z"/>
<path d="M2443 2415 c-270 -5 -494 -13 -498 -16 -6 -7 14 -349 21 -361 3 -5
238 -8 523 -8 440 0 520 2 531 14 13 17 37 343 27 370 -5 14 -17 16 -59 14
-29 -2 -274 -7 -545 -13z m553 -157 c-4 -68 -9 -135 -12 -150 l-6 -28 -484 0
-484 0 -4 23 c-3 12 -7 73 -11 135 -4 86 -2 113 7 117 7 2 211 8 453 13 242 5
464 9 494 10 l53 2 -6 -122z"/>
</g>
</svg>
