<?xml version="1.0" standalone="no"?>
<!DOCTYPE svg PUBLIC "-//W3C//DTD SVG 20010904//EN"
 "http://www.w3.org/TR/2001/REC-SVG-20010904/DTD/svg10.dtd">
<svg version="1.0" xmlns="http://www.w3.org/2000/svg"
 width="478.000000pt" height="478.000000pt" viewBox="0 0 478.000000 478.000000"
 preserveAspectRatio="xMidYMid meet">

<g transform="translate(0.000000,478.000000) scale(0.100000,-0.100000)"
fill="#000000" stroke="none">
<path d="M2070 4528 l0 -61 -23 21 c-23 21 -47 29 -47 15 0 -4 12 -20 27 -35
l27 -28 -68 0 c-50 0 -67 -3 -63 -12 2 -7 21 -14 43 -14 21 -1 50 -2 63 -3
l25 -1 -32 -33 c-30 -31 -41 -57 -25 -57 4 0 22 14 40 32 l33 32 0 -63 c0 -85
23 -79 30 7 l5 62 28 -35 c15 -19 32 -35 37 -35 19 0 9 27 -20 55 -16 16 -30
32 -30 35 0 3 28 6 62 6 40 -1 63 3 65 12 4 9 -13 12 -63 12 l-68 0 27 28 c47
49 33 71 -15 25 l-28 -27 0 62 c0 48 -3 62 -15 62 -12 0 -15 -14 -15 -62z"/>
<path d="M3158 4214 c-99 -196 -104 -205 -128 -199 -14 4 -59 9 -100 12 -61 4
-86 1 -132 -17 -74 -28 -146 -93 -183 -167 -26 -51 -30 -69 -30 -143 0 -107
28 -172 106 -249 l54 -53 -86 -167 -86 -166 -134 -2 c-306 -5 -712 -24 -829
-38 -122 -14 -239 -39 -251 -53 -11 -12 -77 -221 -113 -357 -194 -733 -189
-1351 13 -1752 144 -286 395 -464 749 -529 119 -22 493 -30 648 -14 420 43
706 223 871 550 219 431 197 1163 -58 1972 -38 123 -41 129 -75 143 -71 29
-406 64 -624 65 -157 0 -152 -14 -59 172 l80 159 32 -8 c18 -4 66 -8 107 -8
90 1 147 23 214 85 59 55 82 92 102 169 29 115 -6 233 -96 321 l-48 47 105
207 c57 113 101 211 98 216 -3 6 -15 10 -25 10 -15 0 -42 -46 -122 -206z
m-153 -244 l25 -10 -127 -250 c-71 -137 -133 -250 -139 -250 -18 0 -94 87
-112 128 -24 58 -22 177 5 228 36 67 70 101 135 133 49 25 74 31 124 31 34 0
74 -4 89 -10z m117 -77 c134 -138 96 -361 -76 -451 -42 -22 -65 -26 -128 -27
-42 0 -81 5 -87 10 -10 10 232 505 247 505 4 0 24 -17 44 -37z m-582 -888 c0
-3 -26 -57 -57 -120 l-58 -115 -90 0 c-208 0 -549 60 -800 141 -83 26 -96 33
-77 40 33 13 295 39 477 48 183 9 605 13 605 6z m445 -16 c155 -10 352 -33
362 -42 6 -7 -133 -59 -237 -90 -168 -50 -400 -87 -553 -87 l-78 0 63 121 63
120 110 -6 c60 -3 182 -11 270 -16z m-1408 -143 c240 -72 466 -112 686 -123
70 -3 127 -9 127 -12 0 -3 -106 -213 -234 -466 l-234 -460 -38 -6 c-22 -4 -88
-12 -148 -19 -152 -16 -291 -46 -340 -73 l-41 -23 2 -69 c4 -190 152 -466 321
-601 246 -195 600 -275 954 -214 411 70 689 300 813 674 21 61 38 133 39 161
1 47 0 50 -39 71 -49 28 -193 58 -390 81 -122 14 -235 17 -612 18 l-462 0 231
455 c127 250 234 458 237 462 4 5 70 12 146 17 259 18 445 55 657 132 62 22
121 43 130 46 14 4 22 -13 47 -91 75 -242 146 -572 176 -831 20 -167 23 -502
6 -625 -44 -313 -139 -529 -305 -696 -225 -224 -504 -305 -996 -291 -323 10
-512 57 -690 172 -225 145 -366 369 -430 684 -81 401 -22 978 162 1579 28 93
34 103 52 98 12 -2 89 -25 173 -50z m1358 -1121 c252 -21 434 -51 489 -82 27
-15 1 -30 -95 -53 -145 -35 -427 -60 -759 -66 -268 -6 -694 6 -707 19 -2 3 16
46 41 95 l46 91 47 4 c145 11 764 6 938 -8z m-1088 -91 l-42 -86 -68 6 c-173
16 -348 60 -333 85 8 13 148 48 241 60 125 17 137 18 192 20 l53 1 -43 -86z
m-345 -93 c46 -11 125 -25 176 -32 50 -6 92 -14 92 -16 0 -9 -173 -324 -181
-328 -30 -19 -179 299 -179 382 0 16 -7 17 92 -6z m1918 8 c0 -6 -11 -44 -25
-85 -95 -284 -298 -489 -579 -584 -312 -106 -662 -88 -941 50 -99 48 -245 158
-245 183 0 6 45 93 99 192 l99 180 118 -5 c227 -10 888 -4 1034 9 138 12 396
53 408 65 9 10 32 7 32 -5z"/>
<path d="M1500 2700 c-22 -14 -2 -41 42 -56 52 -18 324 -73 378 -76 39 -3 45
0 48 18 3 19 -8 23 -140 48 -134 26 -264 56 -298 70 -8 3 -22 1 -30 -4z"/>
<path d="M2912 2473 c-21 -8 -43 -61 -36 -88 3 -14 18 -34 31 -45 78 -61 178
46 108 115 -23 24 -69 32 -103 18z m72 -59 c7 -19 -10 -44 -31 -44 -17 0 -27
24 -19 45 7 20 42 19 50 -1z"/>
<path d="M2632 2104 c-26 -18 -30 -65 -6 -88 23 -24 70 -20 88 6 22 31 20 54
-6 78 -26 24 -46 25 -76 4z m43 -44 c3 -5 1 -10 -4 -10 -6 0 -11 5 -11 10 0 6
2 10 4 10 3 0 8 -4 11 -10z"/>
<path d="M3082 2040 c-44 -18 -48 -79 -7 -106 27 -18 68 -6 84 25 16 29 14 39
-14 66 -26 27 -29 28 -63 15z"/>
<path d="M2746 1684 c-36 -36 -6 -104 46 -104 25 0 58 36 58 63 0 49 -70 76
-104 41z m54 -38 c0 -3 -4 -8 -10 -11 -5 -3 -10 -1 -10 4 0 6 5 11 10 11 6 0
10 -2 10 -4z"/>
<path d="M2415 1350 c-93 -60 -170 -116 -170 -123 0 -23 219 -357 234 -357 20
0 361 221 361 234 0 6 -37 67 -81 136 -45 69 -95 146 -111 173 -16 26 -37 47
-46 47 -10 0 -93 -50 -187 -110z m264 -82 c46 -72 84 -138 85 -146 1 -16 -263
-193 -276 -186 -3 2 -45 65 -93 140 -65 102 -84 139 -76 148 13 12 263 175
271 175 3 1 43 -58 89 -131z"/>
<path d="M2972 1324 c-45 -31 -19 -104 37 -104 58 0 80 63 35 99 -32 25 -43
26 -72 5z m43 -44 c3 -5 1 -10 -4 -10 -6 0 -11 5 -11 10 0 6 2 10 4 10 3 0 8
-4 11 -10z"/>
<path d="M3970 3880 c0 -33 -3 -60 -7 -60 -4 0 -17 10 -30 22 -13 12 -26 18
-30 15 -3 -4 3 -17 15 -30 12 -13 22 -26 22 -30 0 -3 -28 -7 -62 -9 -82 -4
-77 -22 7 -28 l66 -5 -35 -34 c-20 -19 -36 -39 -36 -43 0 -19 31 -6 52 22 12
17 25 30 30 30 4 0 8 -27 8 -60 0 -33 4 -60 10 -60 6 0 10 27 10 60 0 33 4 60
9 60 5 0 21 -13 34 -30 25 -29 47 -39 47 -22 0 4 -16 24 -36 43 l-35 34 66 5
c84 6 89 24 7 28 l-63 3 22 30 c29 41 16 49 -21 14 l-30 -29 0 67 c0 38 -4 67
-10 67 -6 0 -10 -27 -10 -60z"/>
<path d="M1800 3798 l0 -92 -43 42 c-54 53 -69 43 -22 -14 19 -23 35 -44 35
-46 0 -2 -37 -4 -82 -3 -116 0 -116 -19 0 -25 l93 -5 -51 -50 c-27 -27 -50
-53 -50 -57 0 -22 33 -3 67 37 20 25 41 45 45 45 4 0 8 -38 8 -85 0 -50 4 -85
10 -85 6 0 10 35 10 85 0 47 3 85 6 85 4 0 24 -20 46 -45 22 -25 44 -45 49
-45 19 0 7 23 -37 70 l-47 50 92 0 c73 0 91 3 91 15 0 11 -16 14 -85 12 -47
-1 -85 0 -85 2 0 2 16 23 35 46 46 57 32 66 -22 13 l-43 -42 0 92 c0 55 -4 92
-10 92 -6 0 -10 -37 -10 -92z"/>
<path d="M690 3306 c0 -36 -3 -66 -7 -66 -4 0 -20 12 -35 27 -20 19 -28 22
-28 11 0 -8 9 -23 20 -33 32 -29 24 -35 -45 -35 -37 0 -65 -4 -65 -10 0 -6 28
-10 65 -10 36 0 65 -4 65 -8 0 -5 -13 -21 -30 -37 -28 -27 -40 -55 -23 -55 4
0 24 17 45 37 l38 37 0 -67 c0 -38 4 -67 10 -67 6 0 10 29 10 67 l0 67 40 -39
c49 -48 64 -40 21 12 -17 21 -31 41 -31 45 0 5 29 8 65 8 37 0 65 4 65 10 0 6
-31 10 -72 10 l-72 0 27 28 c47 49 33 71 -15 25 l-28 -27 0 62 c0 33 -4 64
-10 67 -6 4 -10 -18 -10 -59z"/>
</g>
</svg>
