<?xml version="1.0" standalone="no"?>
<!DOCTYPE svg PUBLIC "-//W3C//DTD SVG 20010904//EN"
 "http://www.w3.org/TR/2001/REC-SVG-20010904/DTD/svg10.dtd">
<svg version="1.0" xmlns="http://www.w3.org/2000/svg"
 width="512.000000pt" height="512.000000pt" viewBox="0 0 512.000000 512.000000"
 preserveAspectRatio="xMidYMid meet">

<g transform="translate(0.000000,512.000000) scale(0.100000,-0.100000)"
fill="#000000" stroke="none">
<path d="M3477 4404 c-4 -4 -7 -27 -7 -50 l0 -43 -47 -3 c-40 -3 -48 -6 -48
-23 0 -17 8 -20 47 -23 l47 -3 3 -47 c3 -39 6 -47 23 -47 17 0 20 8 23 48 l3
47 50 0 c47 0 50 2 47 23 -3 19 -10 22 -50 25 l-47 3 -3 47 c-2 33 -8 48 -18
50 -9 1 -19 0 -23 -4z"/>
<path d="M3816 4164 c-21 -20 -20 -37 3 -65 16 -20 23 -22 47 -14 51 18 42 95
-12 95 -12 0 -30 -7 -38 -16z"/>
<path d="M4390 4000 c-47 -8 -77 -28 -102 -68 -17 -27 -32 -114 -79 -445 -32
-227 -59 -433 -59 -458 0 -67 33 -165 80 -234 58 -85 86 -142 99 -203 7 -36
11 -277 11 -770 0 -702 1 -718 20 -750 25 -41 79 -65 125 -56 42 8 93 57 100
97 3 18 4 651 3 1407 -3 1294 -4 1377 -21 1407 -31 58 -101 86 -177 73z m102
-61 c50 -27 48 20 48 -1447 l0 -1369 -21 -27 c-25 -31 -88 -37 -110 -9 -12 13
-15 151 -19 767 -6 860 2 784 -104 952 -59 93 -86 163 -86 224 0 30 96 731
115 839 10 52 48 81 107 81 27 0 58 -5 70 -11z"/>
<path d="M3814 3955 c-20 -31 -10 -63 23 -71 34 -9 57 6 61 40 7 55 -53 78
-84 31z"/>
<path d="M551 3924 c-20 -26 -21 -38 -21 -344 0 -174 5 -342 10 -371 6 -30 38
-110 73 -178 l62 -123 5 -902 c5 -840 6 -904 23 -929 53 -82 161 -82 214 0 17
25 18 89 23 930 l5 902 57 109 c89 171 88 166 88 547 0 321 -1 333 -21 359
-23 30 -72 35 -105 12 -18 -13 -19 -31 -24 -248 -5 -225 -6 -233 -25 -233 -19
0 -20 8 -25 226 -5 205 -7 229 -24 248 -25 27 -86 29 -109 3 -15 -16 -17 -48
-17 -234 0 -119 -3 -223 -6 -232 -3 -9 -14 -16 -24 -16 -10 0 -21 7 -24 16 -3
9 -6 111 -6 228 0 244 -3 256 -70 256 -30 0 -43 -6 -59 -26z m81 -255 c3 -229
3 -231 27 -250 30 -24 72 -24 102 0 24 19 24 21 27 250 3 216 5 231 22 231 10
0 21 -7 24 -16 3 -9 6 -112 6 -230 0 -201 1 -215 20 -234 27 -27 81 -26 106 1
17 19 19 43 24 248 5 218 6 226 25 226 20 0 20 -8 23 -320 2 -205 -1 -336 -8
-365 -6 -25 -39 -101 -73 -169 l-62 -123 -5 -903 c-5 -870 -6 -904 -24 -924
-13 -14 -31 -21 -56 -21 -74 0 -69 -66 -72 920 -3 674 -7 895 -16 925 -7 22
-41 96 -75 164 l-62 123 -3 335 c-2 184 -1 341 2 349 3 8 14 14 25 14 19 0 20
-8 23 -231z"/>
<path d="M3820 3760 c-23 -23 -24 -33 -10 -61 12 -22 59 -26 78 -7 17 17 15
54 -4 72 -21 21 -40 20 -64 -4z"/>
<path d="M2480 3744 c-336 -48 -584 -171 -793 -394 -165 -175 -271 -380 -322
-625 -24 -110 -24 -350 -2 -467 54 -273 184 -511 384 -698 255 -238 560 -351
912 -337 270 11 500 92 712 252 393 295 580 792 478 1270 -107 503 -501 887
-1011 986 -91 17 -278 24 -358 13z m293 -55 c183 -27 400 -113 544 -215 158
-114 307 -294 392 -475 80 -170 129 -410 117 -574 -47 -645 -532 -1124 -1167
-1152 -598 -26 -1118 380 -1240 967 -27 132 -29 364 -5 480 53 244 162 447
336 620 232 233 525 356 853 359 54 1 131 -4 170 -10z"/>
<path d="M2456 3639 c-385 -56 -714 -316 -871 -688 -47 -112 -74 -221 -87
-358 -11 -118 -6 -142 25 -130 11 4 17 30 22 94 38 522 394 934 888 1028 43 8
103 15 131 15 54 0 78 13 69 36 -6 16 -80 17 -177 3z"/>
<path d="M2096 3419 c-177 -108 -341 -290 -427 -472 -31 -67 -31 -87 -1 -87
12 0 30 26 56 80 73 153 223 323 359 408 83 52 111 77 103 90 -11 19 -37 13
-90 -19z"/>
<path d="M2520 3350 c-105 -13 -189 -38 -295 -90 -223 -109 -387 -309 -457
-555 -31 -112 -31 -323 1 -440 85 -317 336 -557 656 -631 149 -34 375 -13 518
48 248 105 434 318 507 578 93 332 -39 713 -319 919 -126 93 -280 155 -409
166 -37 3 -83 7 -102 9 -19 2 -64 0 -100 -4z m285 -70 c361 -102 599 -389 622
-749 10 -152 -31 -323 -108 -453 -154 -261 -411 -408 -714 -408 -561 1 -950
552 -766 1086 89 259 322 467 592 529 74 17 308 14 374 -5z"/>
<path d="M1516 1204 c-32 -31 -14 -84 29 -84 32 0 48 15 48 46 0 45 -47 69
-77 38z"/>
<path d="M1297 954 c-4 -4 -7 -27 -7 -51 l0 -43 -44 0 c-25 0 -48 -5 -51 -10
-12 -20 17 -40 56 -40 38 0 39 -1 39 -37 0 -46 13 -68 34 -60 11 5 16 19 16
52 l0 45 44 0 c79 0 84 46 6 52 l-45 3 -5 45 c-5 43 -24 62 -43 44z"/>
</g>
</svg>
