<?xml version="1.0" standalone="no"?>
<!DOCTYPE svg PUBLIC "-//W3C//DTD SVG 20010904//EN"
 "http://www.w3.org/TR/2001/REC-SVG-20010904/DTD/svg10.dtd">
<svg version="1.0" xmlns="http://www.w3.org/2000/svg"
 width="735.000000pt" height="490.000000pt" viewBox="0 0 735.000000 490.000000"
 preserveAspectRatio="xMidYMid meet">

<g transform="translate(0.000000,490.000000) scale(0.100000,-0.100000)"
fill="#000000" stroke="none">
<path d="M1546 3924 c-9 -8 -18 -25 -20 -37 -8 -37 -21 -470 -21 -667 0 -214
5 -232 77 -326 78 -102 81 -117 80 -359 -1 -203 -10 -398 -33 -709 -12 -168
-7 -231 24 -263 41 -45 138 -20 197 51 13 17 14 17 21 -1 4 -10 8 -30 8 -45 1
-25 -1 -26 -32 -21 -71 11 -186 -81 -228 -182 l-23 -55 -87 0 c-95 0 -204 18
-348 56 -272 73 -466 72 -647 -3 -37 -15 -69 -33 -71 -40 -2 -6 31 4 73 22
105 46 190 59 348 52 108 -4 156 -11 267 -41 176 -46 293 -66 386 -66 l74 0
-8 -53 c-12 -83 -7 -207 11 -257 9 -25 31 -60 49 -78 102 -106 235 -26 268
162 18 103 16 311 -5 458 l-19 127 30 38 c78 101 201 347 368 738 127 297 182
407 277 552 94 143 245 293 393 392 224 150 409 207 710 218 197 7 318 -8 470
-59 306 -103 581 -327 718 -586 96 -183 145 -382 154 -638 l6 -151 -46 -6
c-26 -4 -91 -9 -144 -12 -54 -3 -110 -8 -125 -10 l-28 -4 0 128 c0 287 -76
518 -231 699 -87 102 -164 160 -294 223 -261 125 -576 143 -859 48 -166 -55
-319 -145 -435 -254 -316 -297 -431 -802 -280 -1233 137 -390 444 -675 839
-779 129 -34 379 -43 520 -19 431 75 788 326 954 671 78 162 129 326 142 461
l6 71 77 18 c112 26 207 68 287 129 l72 53 69 -4 c72 -6 114 7 142 41 21 25
26 19 26 -26 0 -36 -3 -42 -25 -48 -178 -48 -255 -282 -267 -805 -6 -252 2
-357 34 -454 42 -131 173 -173 233 -76 46 75 50 131 49 743 0 316 1 576 4 578
2 3 40 -7 83 -20 62 -20 110 -47 219 -121 227 -156 394 -227 615 -260 109 -17
266 -20 275 -5 4 6 -31 10 -98 10 -130 0 -263 22 -394 65 -131 44 -224 91
-351 179 -57 39 -123 83 -147 98 -46 28 -144 66 -185 70 l-25 3 -6 200 c-4
110 -7 458 -8 773 -1 617 -1 622 -53 635 -47 13 -103 -53 -143 -169 -62 -179
-161 -584 -201 -824 -30 -175 -30 -328 0 -411 19 -52 67 -114 108 -139 l29
-17 -48 -42 c-59 -53 -167 -105 -268 -131 -43 -11 -84 -20 -90 -20 -8 0 -14
42 -18 138 -19 412 -126 684 -361 917 -194 192 -415 314 -676 371 -113 25
-411 25 -546 1 -358 -65 -673 -275 -892 -596 -88 -127 -156 -263 -277 -546
-124 -291 -298 -648 -352 -720 l-37 -50 -7 45 c-9 59 -26 321 -40 595 -17 336
-1 470 66 571 55 84 68 146 69 329 1 196 -15 661 -24 695 -7 27 -35 36 -59 21
-12 -8 -15 -66 -16 -340 -1 -182 -4 -333 -7 -337 -4 -3 -12 -3 -19 2 -9 5 -11
78 -6 318 4 171 4 321 1 333 -8 30 -42 40 -63 19 -14 -14 -17 -61 -24 -339 -4
-177 -10 -328 -12 -335 -3 -7 -10 -10 -16 -6 -9 5 -10 88 -5 323 7 339 4 363
-42 369 -39 6 -44 -32 -49 -375 -3 -177 -10 -320 -14 -317 -5 3 -9 153 -9 333
0 305 -1 329 -18 344 -23 21 -27 21 -46 1z m45 -55 c4 -24 4 -174 1 -334 -5
-262 -3 -291 11 -304 14 -11 20 -11 32 -1 13 10 15 53 15 264 0 304 7 416 28
423 8 3 18 0 23 -8 6 -9 7 -136 3 -330 -7 -323 -4 -359 31 -359 7 0 17 6 22
13 4 6 10 156 13 332 4 176 10 328 14 338 5 10 16 17 25 15 14 -3 16 -37 16
-335 0 -349 3 -372 43 -347 15 10 17 43 22 342 3 182 8 334 12 337 4 4 13 5
21 2 10 -4 16 -81 26 -369 17 -468 10 -553 -56 -649 -70 -101 -86 -228 -73
-551 11 -241 27 -504 39 -618 9 -84 7 -91 -63 -141 -46 -34 -114 -40 -137 -12
-18 21 -17 193 5 533 9 140 16 339 16 442 0 217 -8 252 -74 338 -67 86 -77
112 -83 218 -8 120 17 771 29 795 15 29 32 14 39 -34z m4083 9 c13 -20 16
-130 20 -717 4 -535 3 -692 -6 -683 -24 24 -74 13 -125 -27 -26 -21 -57 -48
-67 -60 -25 -28 -35 -27 -83 8 -84 61 -121 200 -102 384 19 187 109 592 194
871 64 211 125 291 169 224z m-1813 -633 c334 -58 598 -261 712 -547 58 -143
94 -370 82 -505 l-7 -73 -81 0 -82 0 3 123 c4 157 -13 243 -72 362 -93 186
-225 298 -426 363 -290 93 -657 15 -872 -186 -103 -96 -189 -246 -229 -397
-29 -114 -37 -340 -15 -454 58 -305 319 -540 673 -607 67 -12 127 -15 253 -12
152 4 172 7 252 35 180 63 341 184 445 335 83 120 112 185 147 333 l22 90 100
6 c54 3 132 10 172 14 l72 8 0 -39 c-1 -118 -59 -314 -145 -489 -138 -284
-397 -496 -738 -604 -141 -45 -262 -64 -412 -64 -206 0 -365 37 -540 123 -325
161 -562 480 -636 855 -20 103 -18 339 5 445 21 97 67 232 103 305 181 359
574 592 1004 594 70 1 164 -6 210 -14z m92 -284 c164 -43 320 -152 406 -284
84 -130 130 -322 115 -485 -8 -85 4 -79 -164 -86 -244 -10 -390 -101 -392
-244 0 -104 66 -158 186 -150 153 10 299 145 357 328 l17 55 81 3 c79 3 81 2
81 -20 0 -39 -39 -168 -74 -244 -113 -244 -323 -421 -576 -485 -75 -19 -103
-21 -269 -16 -211 5 -277 19 -416 87 -215 105 -367 290 -411 500 -23 108 -14
376 15 478 91 314 322 518 655 577 108 19 286 13 389 -14z m1733 -506 c17 -43
-23 -90 -88 -104 -44 -10 -110 -2 -105 13 2 6 30 32 62 59 62 50 119 64 131
32z m22 -791 c-3 -569 -4 -612 -22 -652 -56 -128 -180 -103 -227 46 -51 167
-43 638 17 922 21 98 72 208 117 251 37 35 96 62 110 49 4 -4 7 -281 5 -616z
m-1254 409 c-16 -69 -79 -179 -133 -233 -79 -79 -136 -105 -233 -105 -91 0
-125 19 -147 81 -27 77 24 171 118 219 69 35 124 47 246 55 61 4 120 8 133 8
20 2 22 -1 16 -25z m-2586 -575 c4 -32 -51 -97 -112 -133 -46 -26 -123 -51
-132 -43 -3 3 6 28 19 55 42 82 136 156 192 151 24 -2 31 -8 33 -30z m37 -145
c11 -165 -5 -308 -42 -381 -35 -70 -83 -106 -132 -98 -71 11 -110 58 -131 157
-19 89 -1 269 26 269 62 0 201 81 239 139 11 17 23 31 27 31 3 0 9 -53 13
-117z"/>
</g>
</svg>
