<?xml version="1.0" standalone="no"?>
<!DOCTYPE svg PUBLIC "-//W3C//DTD SVG 20010904//EN"
 "http://www.w3.org/TR/2001/REC-SVG-20010904/DTD/svg10.dtd">
<svg version="1.0" xmlns="http://www.w3.org/2000/svg"
 width="492.000000pt" height="414.000000pt" viewBox="0 0 492.000000 414.000000"
 preserveAspectRatio="xMidYMid meet">

<g transform="translate(0.000000,414.000000) scale(0.100000,-0.100000)"
fill="#000000" stroke="none">
<path d="M1146 3868 c-9 -12 -16 -29 -16 -37 0 -9 167 -182 370 -386 l370
-371 -53 -52 -52 -52 -355 356 c-195 195 -368 362 -383 370 -26 14 -31 14 -53
-1 -56 -36 -50 -44 341 -435 l366 -366 -57 -63 -57 -63 -371 371 c-205 204
-379 371 -389 371 -22 0 -57 -35 -57 -57 0 -10 165 -183 367 -385 l368 -368
-65 -65 -65 -65 -365 365 c-389 389 -397 396 -434 343 -9 -12 -16 -27 -16 -32
0 -6 174 -185 388 -399 251 -252 407 -400 443 -422 140 -86 356 -86 481 0 l38
26 281 -282 281 -282 -124 -126 c-69 -69 -326 -335 -573 -591 -247 -256 -478
-495 -514 -533 l-65 -67 72 -73 73 -73 88 90 c48 50 307 325 576 611 268 286
512 545 541 575 l54 55 665 -665 665 -665 76 76 76 76 -671 663 -670 664 62
70 c34 38 80 90 103 115 l41 45 32 -27 c18 -15 36 -27 41 -27 5 0 16 -8 26
-17 14 -15 35 -18 106 -18 49 0 92 5 96 10 4 6 20 16 37 23 67 30 200 127 281
204 112 107 505 562 565 653 95 146 141 304 142 495 1 106 -16 247 -32 278 -6
10 -814 -815 -1497 -1528 -71 -74 -131 -135 -134 -135 -3 1 -130 127 -283 281
l-277 280 21 59 c44 126 36 249 -25 375 -27 57 -77 111 -421 458 -416 419
-422 423 -459 370z"/>
</g>
</svg>
