<?xml version="1.0" standalone="no"?>
<!DOCTYPE svg PUBLIC "-//W3C//DTD SVG 20010904//EN"
 "http://www.w3.org/TR/2001/REC-SVG-20010904/DTD/svg10.dtd">
<svg version="1.0" xmlns="http://www.w3.org/2000/svg"
 width="736.000000pt" height="736.000000pt" viewBox="0 0 736.000000 736.000000"
 preserveAspectRatio="xMidYMid meet">

<g transform="translate(0.000000,736.000000) scale(0.100000,-0.100000)"
fill="#000000" stroke="none">
<path d="M4044 5174 c-27 -14 -134 -59 -237 -99 -236 -93 -364 -159 -447 -230
-35 -30 -68 -55 -72 -55 -5 0 -34 11 -66 24 -81 34 -197 65 -342 92 -69 12
-159 35 -200 49 -59 22 -88 26 -140 23 -61 -3 -92 -16 -540 -232 -261 -126
-539 -260 -618 -298 -97 -47 -184 -80 -270 -104 -160 -43 -260 -76 -387 -126
-113 -45 -277 -128 -321 -163 -54 -43 -18 -35 67 15 146 87 366 172 644 249
122 34 184 61 485 206 190 92 395 191 455 220 61 29 182 88 270 131 153 74
163 78 230 78 54 0 84 -6 135 -27 36 -15 108 -34 160 -42 127 -20 248 -51 344
-87 l79 -31 -50 -46 c-27 -25 -67 -60 -87 -78 l-38 -32 -65 24 c-103 39 -182
85 -219 129 -27 31 -34 35 -34 20 0 -49 78 -106 223 -164 86 -34 92 -38 98
-70 4 -20 3 -37 -2 -41 -6 -3 -74 -9 -152 -12 -153 -6 -187 -14 -229 -54 -36
-35 -25 -50 14 -18 16 14 39 27 51 30 54 12 185 25 246 25 l68 0 12 -76 c7
-41 24 -107 37 -146 13 -40 24 -73 24 -74 0 -1 -13 -12 -30 -24 -27 -19 -34
-20 -95 -9 -51 9 -72 8 -95 -1 -36 -15 -40 -35 -5 -26 23 6 24 5 13 -19 -12
-26 -12 -26 -105 -19 -82 6 -93 5 -93 -10 0 -13 13 -16 83 -16 199 0 403 -30
496 -71 25 -11 136 -38 246 -60 267 -53 278 -56 270 -77 -25 -61 -26 -72 -13
-99 18 -37 77 -68 163 -86 l70 -14 -50 -19 c-63 -24 -209 -24 -345 0 -52 10
-149 19 -215 21 -66 3 -158 11 -205 20 -95 16 -396 20 -495 6 -41 -6 -83 -22
-131 -50 -39 -23 -73 -41 -76 -41 -3 0 -11 30 -17 66 -10 55 -9 83 6 170 10
62 22 104 29 104 6 0 14 12 17 28 3 15 23 54 43 87 69 111 92 160 109 225 9
35 23 77 32 93 8 16 12 32 8 35 -14 14 -42 -39 -64 -122 -17 -63 -37 -108 -73
-164 -28 -42 -57 -90 -64 -107 -12 -27 -13 -21 -14 69 0 86 4 110 31 185 65
179 71 192 107 221 41 34 38 49 -6 26 -39 -20 -64 -62 -98 -168 -15 -48 -29
-86 -31 -85 -1 2 -9 37 -17 78 -21 108 -51 181 -98 234 -97 111 -229 112 -321
5 -86 -101 -127 -312 -127 -661 0 -163 -5 -207 -47 -382 l-25 -109 -182 3
c-151 1 -189 -1 -226 -16 -27 -10 -86 -19 -150 -22 -144 -7 -230 -36 -378
-130 -141 -90 -356 -270 -517 -432 -125 -127 -68 -95 78 44 250 236 495 413
642 463 36 12 98 23 155 26 52 3 122 12 155 22 105 29 109 29 97 8 -6 -11 -69
-98 -141 -194 -148 -197 -210 -311 -241 -442 -17 -72 -19 -95 -10 -135 18 -79
90 -190 240 -368 101 -121 181 -224 218 -282 32 -50 34 -57 35 -155 l2 -103
134 -272 c119 -242 151 -298 151 -263 0 5 -59 130 -131 277 -154 316 -156 324
-115 482 78 304 195 450 471 589 300 150 692 178 922 66 81 -39 158 -115 191
-187 49 -110 150 -314 197 -399 73 -129 329 -538 337 -538 18 0 2 31 -105 203
-200 321 -305 511 -387 699 -49 112 -115 186 -210 237 -58 31 -170 65 -252 76
-46 6 -48 8 -58 48 -44 165 -107 344 -161 450 l-30 59 33 38 c18 21 42 48 54
61 11 13 53 49 93 79 73 55 184 165 232 229 l25 35 110 -18 c60 -10 176 -22
259 -27 82 -4 191 -15 240 -23 50 -9 109 -16 131 -16 50 0 189 -39 291 -81
122 -51 180 -96 279 -215 131 -157 275 -291 401 -373 59 -39 137 -99 173 -133
50 -49 147 -112 187 -124 2 0 -9 -58 -22 -128 -32 -162 -43 -241 -56 -396 -10
-121 -5 -254 11 -279 4 -7 71 -26 149 -41 292 -60 534 -128 997 -281 182 -60
338 -109 348 -109 49 0 -25 29 -327 129 -388 128 -663 208 -884 257 -87 19
-162 36 -167 38 -5 1 11 14 35 28 138 81 297 327 462 718 65 154 66 156 76
289 14 172 14 438 0 537 -6 42 -21 113 -34 158 -13 44 -22 82 -21 83 1 1 25
-6 52 -16 27 -11 133 -36 234 -56 447 -87 641 -128 829 -175 211 -52 243 -58
224 -39 -23 23 -518 136 -978 224 -205 39 -274 56 -346 87 -45 19 -47 22 -94
131 -43 102 -77 201 -267 787 -33 102 -69 204 -80 227 -33 70 -104 128 -180
147 -15 3 -88 13 -164 21 -97 11 -173 27 -263 54 -70 22 -183 51 -251 66 -69
14 -162 37 -206 51 -104 31 -148 30 -210 -2z m183 -18 c43 -14 107 -30 143
-36 81 -14 304 -72 385 -100 33 -11 119 -27 190 -36 72 -8 152 -19 178 -24
134 -28 167 -78 273 -418 150 -484 213 -659 306 -862 69 -148 94 -329 84 -590
-11 -283 -17 -317 -84 -479 -33 -79 -65 -148 -70 -153 -7 -7 -58 22 -155 90
-129 88 -156 103 -239 126 -51 15 -111 38 -133 51 -46 29 -113 85 -101 85 5 0
71 -25 148 -55 144 -57 158 -61 158 -46 0 5 -60 33 -132 61 -314 122 -469 227
-671 458 -167 192 -212 232 -307 278 -47 23 -116 52 -155 64 l-69 23 43 13
c24 7 55 23 70 37 14 13 45 29 68 36 48 13 73 42 73 84 0 24 -7 31 -46 48 -25
12 -85 30 -132 41 -48 10 -143 32 -212 48 -69 16 -174 38 -235 50 -147 28
-140 25 -160 69 -29 65 -99 118 -188 142 -34 9 -43 7 -72 -12 -18 -13 -41 -37
-51 -53 -12 -21 -19 -26 -22 -16 -7 21 81 95 135 115 72 25 211 30 320 11 50
-9 158 -38 240 -65 278 -92 527 -107 683 -40 35 15 56 35 95 91 72 104 209
240 273 273 30 14 52 29 49 32 -12 12 -66 -10 -115 -48 l-53 -40 -32 27 c-18
15 -60 40 -94 55 -94 42 -190 139 -138 139 8 0 15 4 15 9 0 5 -33 10 -72 13
-63 3 -89 11 -190 58 l-117 55 6 33 c7 40 -14 44 -23 5 -10 -41 -34 -73 -53
-73 -10 0 -62 -13 -117 -29 -54 -16 -128 -32 -163 -36 -52 -5 -72 -13 -115
-45 -110 -82 -119 -84 -329 -85 -170 0 -188 2 -193 18 -10 32 6 53 117 153
223 199 262 222 582 348 93 37 187 76 210 88 86 44 96 44 194 14z m-15 -465
c53 -26 107 -52 120 -56 19 -7 15 -9 -24 -12 -36 -3 -74 5 -153 32 l-105 37
-64 -51 c-35 -28 -89 -62 -118 -76 -59 -27 -149 -48 -160 -37 -3 4 -4 30 -1
58 l5 51 67 7 c73 7 285 66 303 84 18 18 25 16 130 -37z m-106 -45 c22 -8 52
-19 68 -25 l29 -12 -29 -30 c-15 -16 -52 -41 -81 -56 l-53 -25 3 -117 c1 -64
-2 -123 -8 -132 -9 -15 -26 -8 -133 55 -130 75 -135 81 -136 159 l-1 38 67 23
c38 13 89 39 115 58 27 19 53 37 60 41 8 5 17 -10 29 -48 10 -30 21 -55 26
-55 14 0 8 43 -11 87 -26 57 -16 65 55 39z m-1751 -36 c22 -11 31 -17 20 -13
-11 4 -47 8 -81 8 -51 0 -66 -4 -98 -29 -54 -41 -61 -63 -48 -143 15 -88 25
-97 109 -94 37 1 95 -3 128 -9 81 -13 90 -4 90 96 -1 68 0 72 13 49 7 -14 22
-60 34 -103 29 -106 31 -379 4 -531 -22 -126 -19 -166 29 -359 19 -79 35 -150
35 -159 0 -9 16 -40 35 -69 20 -29 53 -91 75 -138 39 -86 123 -332 135 -397
l7 -36 -109 -6 c-274 -17 -565 -129 -747 -287 -120 -106 -171 -186 -227 -355
-32 -98 -32 -99 -48 -75 -38 59 -135 185 -208 271 -182 216 -263 345 -263 419
0 58 36 183 75 261 43 87 69 124 206 306 60 79 112 151 118 161 8 16 24 18
148 17 156 -1 145 8 117 -91 -19 -67 -45 -82 -100 -59 -53 24 -188 25 -211 3
-14 -15 -9 -16 64 -11 79 6 153 -8 153 -28 0 -5 -1 -9 -3 -9 -9 0 -278 -104
-330 -127 -33 -15 -54 -30 -49 -35 5 -5 32 2 63 15 30 14 101 41 159 62 58 20
134 52 168 71 l64 35 -7 -41 c-4 -25 -3 -40 4 -40 10 0 18 25 39 115 6 22 30
119 55 215 55 213 67 305 67 525 1 356 56 545 179 608 65 32 83 33 136 7z
m2075 2 c0 -27 79 -95 157 -136 99 -52 123 -68 123 -85 0 -6 -17 -30 -38 -54
-21 -23 -55 -64 -77 -92 l-40 -50 -5 102 -5 101 -58 61 c-39 40 -57 67 -53 77
7 19 -3 64 -15 64 -5 0 -9 -19 -9 -43 0 -23 -7 -53 -16 -66 l-16 -23 -22 38
c-23 40 -51 63 -62 51 -4 -4 5 -20 20 -36 49 -51 53 -207 8 -285 -50 -87 -172
-82 -172 7 0 18 -11 82 -25 142 -22 101 -22 111 -7 119 9 5 38 29 63 53 45 42
48 43 115 44 38 0 78 4 89 9 26 11 45 12 45 2z m-752 -74 c-5 -40 -12 -76 -17
-81 -7 -7 -141 49 -141 59 0 2 24 16 53 30 28 15 63 35 76 45 13 11 27 19 31
19 3 0 2 -33 -2 -72z m-1297 26 c52 -26 69 -60 69 -135 0 -37 -3 -70 -7 -72
-5 -2 -63 -2 -130 1 l-122 4 -10 31 c-6 16 -11 52 -11 79 0 40 5 53 27 74 48
44 120 52 184 18z m819 -46 c7 -49 34 -170 49 -221 l20 -67 -36 -15 c-19 -8
-37 -15 -38 -15 -13 0 -75 240 -75 288 0 13 79 42 80 30z m355 -49 c109 -48
472 -263 511 -302 40 -40 53 -77 27 -72 -10 2 -47 9 -83 15 -36 6 -123 31
-195 55 -184 61 -269 78 -407 77 l-117 0 -16 54 c-8 30 -23 86 -32 125 -13 60
-14 73 -2 81 8 5 64 7 124 5 100 -3 117 -6 190 -38z m175 24 c1 -5 5 -27 9
-50 5 -24 7 -43 4 -43 -2 0 -15 7 -28 16 -25 16 -31 38 -19 68 6 16 34 23 34
9z m793 -216 c5 -90 3 -125 -6 -133 -40 -37 -228 -71 -323 -59 -52 6 -54 8
-73 50 -10 24 -31 51 -46 61 -18 12 -24 22 -19 33 4 9 10 70 13 136 l6 120 22
-95 c13 -52 26 -119 29 -148 8 -67 36 -92 102 -92 41 0 50 5 87 44 46 48 65
101 65 186 0 37 6 59 22 81 l22 29 47 -45 46 -46 6 -122z m-1204 -168 c55 -27
111 -84 111 -111 0 -14 -30 -8 -90 17 -32 13 -88 30 -124 37 -37 7 -66 18 -66
24 0 19 59 64 84 64 13 0 51 -14 85 -31z m-231 6 c3 -3 1 -14 -5 -23 -8 -13
-22 -16 -54 -14 -24 2 -45 5 -47 7 -2 2 2 13 8 25 10 19 18 22 52 17 22 -3 42
-8 46 -12z m981 -291 c110 -28 133 -41 129 -72 -6 -56 -131 -81 -244 -47 -83
24 -113 70 -83 127 10 19 17 20 72 14 34 -3 90 -13 126 -22z m-1020 -185 c-33
-62 -283 -279 -321 -279 -8 0 -35 14 -61 30 -54 34 -57 35 -57 16 0 -7 25 -26
55 -42 30 -16 55 -31 55 -34 0 -3 -13 -21 -30 -40 l-29 -35 -25 30 c-14 17
-26 43 -26 60 0 17 -11 71 -24 120 -13 50 -22 93 -20 97 6 10 134 80 163 88
14 5 95 9 179 9 l153 1 -12 -21z m2210 -998 c16 -10 11 -54 -25 -211 -102
-443 -111 -509 -74 -532 27 -17 25 -28 -5 -28 -35 0 -39 26 -32 214 6 161 19
262 57 454 11 57 20 105 20 108 0 7 45 4 59 -5z m61 -17 c0 -3 -18 -105 -40
-225 -22 -121 -40 -224 -40 -229 0 -25 158 3 231 41 23 11 42 19 44 17 1 -2
-18 -37 -44 -78 -43 -69 -49 -75 -84 -78 -38 -3 -155 22 -170 37 -11 11 10
174 38 301 13 58 29 131 35 163 6 31 16 57 21 57 5 0 9 -3 9 -6z m165 -111
c69 -48 125 -94 125 -103 0 -8 -15 -42 -33 -75 -28 -53 -39 -64 -97 -93 -59
-29 -198 -67 -208 -57 -3 2 3 46 12 97 48 266 59 318 67 318 5 0 65 -39 134
-87z m-210 -449 c33 -9 73 -19 89 -22 l29 -7 -32 -37 c-18 -21 -55 -54 -81
-73 l-49 -36 -37 17 -36 17 6 59 c9 90 16 110 35 103 9 -3 43 -13 76 -21z"/>
<path d="M4176 4958 c6 -59 0 -88 -31 -160 -11 -28 12 -22 31 7 29 44 32 215
4 215 -5 0 -7 -26 -4 -62z"/>
<path d="M3670 4912 c0 -5 7 -28 14 -50 8 -23 17 -70 19 -104 6 -79 27 -91 27
-16 0 63 -23 150 -45 168 -8 7 -15 8 -15 2z"/>
<path d="M2396 4770 c-74 -32 -93 -44 -79 -53 5 -3 40 9 78 26 87 38 126 39
192 4 56 -29 73 -33 73 -18 0 17 -122 71 -159 71 -20 0 -67 -14 -105 -30z"/>
</g>
</svg>
